<svg width="115" height="44" viewBox="0 0 115 44" fill="none" xmlns="http://www.w3.org/2000/svg">
<path d="M33.7777 15.7667C32.7486 15.7667 31.8867 14.9288 31.8867 13.9236C31.8867 12.9185 32.7482 12.0566 33.7777 12.0566C34.8072 12.0566 35.6926 12.9181 35.6926 13.9236C35.6926 14.9292 34.8311 15.7667 33.7777 15.7667ZM35.3333 28.7869H32.246V16.8197H35.3333V28.7869Z" fill="#005CFF"/>
<path d="M47.3283 18.3972V16.9134H50.3441V28.3062C50.3441 30.1492 49.7218 31.5611 48.5011 32.5423C47.2804 33.5235 45.8206 34.0022 44.0973 34.0022C41.5126 34.0022 39.4779 32.997 38.4249 31.0821L41.0575 29.5744C41.6559 30.6993 42.7089 31.2498 44.1927 31.2498C46.1315 31.2498 47.3279 30.1967 47.3279 28.3058V27.0132C46.4185 28.2339 45.1499 28.8323 43.4985 28.8323C41.8471 28.8323 40.3872 28.2339 39.2384 27.0611C38.1135 25.8644 37.5391 24.4045 37.5391 22.7052C37.5391 21.0059 38.1135 19.57 39.2623 18.3733C40.4112 17.1765 41.8231 16.5781 43.4985 16.5781C45.1739 16.5781 46.4185 17.1765 47.3279 18.3972H47.3283ZM47.3283 22.7052C47.3283 21.7719 47.0173 20.9819 46.371 20.3836C45.7487 19.7612 44.9591 19.4503 43.9775 19.4503C42.9959 19.4503 42.2063 19.7612 41.5601 20.3836C40.9377 20.9819 40.6268 21.7719 40.6268 22.7052C40.6268 24.6201 42.0387 25.9841 43.9775 25.9841C45.9164 25.9841 47.3283 24.6197 47.3283 22.7052Z" fill="#005CFF"/>
<path d="M54.6722 15.7667C53.6431 15.7667 52.7812 14.9288 52.7812 13.9236C52.7812 12.9185 53.6431 12.0566 54.6722 12.0566C55.7013 12.0566 56.5871 12.9181 56.5871 13.9236C56.5871 14.9292 55.7257 15.7667 54.6722 15.7667ZM56.2278 28.7869H53.1401V16.8197H56.2278V28.7869Z" fill="#005CFF"/>
<path d="M64.9177 28.7862C61.5909 28.7862 59.2692 27.2066 58.3359 24.6454L61.1602 22.994C61.8065 24.6933 63.099 25.5548 65.0135 25.5548C66.928 25.5548 67.694 24.8127 67.694 23.7836C67.694 23.1852 67.4306 22.7305 66.904 22.4192C66.3775 22.0843 65.4442 21.725 64.0798 21.3422C62.5721 20.8875 61.6623 20.5282 60.6093 19.7865C59.5802 19.0205 59.0297 17.8716 59.0297 16.34C59.0297 14.8083 59.5562 13.6115 60.6332 12.7257C61.7102 11.8164 63.0268 11.3613 64.5345 11.3613C67.2389 11.3613 69.369 12.7497 70.5179 15.1189L67.7415 16.7224C67.0713 15.2865 65.9943 14.5684 64.5345 14.5684C63.17 14.5684 62.3326 15.2626 62.3326 16.2438C62.3326 16.7703 62.5481 17.201 62.9789 17.5363C63.4335 17.8473 64.2714 18.2066 65.5157 18.5894L66.6645 18.9722C66.928 19.044 67.2869 19.1878 67.7415 19.379C68.1962 19.5466 68.5555 19.7139 68.7946 19.8815C69.2971 20.1925 70.0632 20.7909 70.3741 21.3653C70.733 21.9397 70.9965 22.7772 70.9965 23.7349C70.9965 25.2905 70.422 26.5112 69.2971 27.4205C68.1722 28.3299 66.7124 28.7849 64.9173 28.7849L64.9177 28.7862Z" fill="#005CFF"/>
<path d="M82.4283 17.8953V16.4833H85.5156V28.4505H82.4283V27.0386C81.495 28.2114 80.2024 28.7858 78.5271 28.7858C76.8517 28.7858 75.5591 28.1875 74.4103 26.9668C73.2854 25.746 72.7109 24.2383 72.7109 22.4671C72.7109 20.696 73.2854 19.2122 74.4103 17.9915C75.5591 16.7708 76.9235 16.1484 78.5271 16.1484C80.1306 16.1484 81.4946 16.7229 82.4283 17.8957V17.8953ZM76.7319 24.9077C77.3543 25.5301 78.1438 25.841 79.1015 25.841C80.0592 25.841 80.8487 25.5301 81.4706 24.9077C82.1169 24.2615 82.4279 23.4479 82.4279 22.4663C82.4279 21.4847 82.1169 20.6712 81.4706 20.0488C80.8483 19.4026 80.0587 19.0916 79.1015 19.0916C78.1443 19.0916 77.3543 19.4026 76.7319 20.0488C76.1096 20.6712 75.7982 21.4847 75.7982 22.4663C75.7982 23.4479 76.1096 24.2615 76.7319 24.9077Z" fill="#005CFF"/>
<path d="M91.4076 28.7864H88.3203V11.3145H91.4076V28.7864Z" fill="#005CFF"/>
<path d="M105.864 23.7362H96.8404C97.2471 25.2439 98.372 25.986 100.215 25.986C101.388 25.986 102.297 25.5792 102.896 24.7892L105.385 26.2251C104.212 27.9244 102.465 28.7858 100.167 28.7858C98.1808 28.7858 96.6009 28.1875 95.4045 26.9907C94.2078 25.794 93.6094 24.2862 93.6094 22.4671C93.6094 20.6481 94.2077 19.1643 95.3806 17.9675C96.5534 16.7468 98.085 16.1484 99.9281 16.1484C101.675 16.1484 103.135 16.7468 104.26 17.9675C105.409 19.1882 105.983 20.672 105.983 22.4671C105.983 22.8739 105.935 23.2811 105.864 23.7358V23.7362ZM96.7925 21.3427H102.896C102.537 19.7152 101.34 18.9252 99.9277 18.9252C98.2762 18.9252 97.1513 19.8106 96.7925 21.3427Z" fill="#005CFF"/>
<path d="M58.684 37.0648V31.8008H59.2745V33.797C59.5772 33.3758 60.0055 33.1611 60.5518 33.1611C61.7333 33.1611 62.3238 34.0481 62.3238 35.1573C62.3238 36.2665 61.7259 37.1536 60.5518 37.1536C59.9832 37.1536 59.5475 36.9244 59.2448 36.4734V37.0648H58.6836H58.684ZM59.2527 35.1573C59.2527 35.9337 59.6218 36.6213 60.4783 36.6213C61.2167 36.6213 61.704 36.0448 61.704 35.1276C61.704 34.2104 61.239 33.6934 60.4783 33.6934C59.7176 33.6934 59.2527 34.2331 59.2527 35.1573ZM62.4089 33.2428H63.0634L63.6069 34.8418C63.8006 35.4072 63.9868 35.9576 64.1582 36.5007C64.2994 36.0394 64.4853 35.4815 64.7083 34.834L65.2509 33.2416H65.898L64.2776 37.6834C64.0397 38.3309 63.675 38.5614 63.0279 38.5618C62.9164 38.5618 62.7975 38.5543 62.6707 38.5395V38.041H63.0201C63.3624 38.041 63.6003 37.8845 63.7192 37.5645L63.853 37.2073L62.4085 33.2424L62.4089 33.2428Z" fill="#005CFF"/>
<mask id="mask0_1390_53771" style="mask-type:luminance" maskUnits="userSpaceOnUse" x="67" y="31" width="39" height="7">
<path d="M105.973 31.7344H67.5352V37.1157H105.973V31.7344Z" fill="white"/>
</mask>
<g mask="url(#mask0_1390_53771)">
<path d="M71.0102 37.1161V33.129C70.8042 33.3714 70.6584 33.6291 70.5675 33.895C70.4758 34.1605 70.4383 34.5314 70.4383 35.0013V37.1161H69.2766V35.0013C69.2766 34.5314 69.2308 34.1597 69.1391 33.895C69.0557 33.622 68.9099 33.3644 68.7038 33.129V37.1161H67.5352V31.8711H69.0937C69.2382 32.0309 69.3844 32.2349 69.5289 32.4926C69.6582 32.728 69.7656 32.9857 69.8655 33.2586C69.9493 33.001 70.0563 32.7433 70.1938 32.5009C70.316 32.2655 70.461 32.0615 70.6291 31.8715H72.1876V37.1165H71.0106L71.0102 37.1161Z" fill="#005CFF"/>
<path d="M73.5078 31.8617H74.6765V36.1144H75.8827V37.1146H73.5078V31.8613V31.8617Z" fill="#005CFF"/>
<path d="M76.6367 32.8251V31.8633H79.1649V32.8263H78.4847V37.1165H77.3169V32.8255H76.6367V32.8251Z" fill="#005CFF"/>
<path d="M80.2578 37.1005V31.8555H82.641V32.8557H81.4265V33.7497H82.5952V34.7429H81.4265V36.1152H82.6943V37.1153H80.2578V37.1001V37.1005Z" fill="#005CFF"/>
<path d="M83.8281 33.4932C83.8281 33.1669 83.8587 32.8869 83.912 32.6668C83.9648 32.4393 84.0495 32.2646 84.1721 32.1213C84.3864 31.8636 84.7676 31.7344 85.3032 31.7344C85.8388 31.7344 86.2117 31.8636 86.4331 32.1213C86.6544 32.3873 86.7696 32.8419 86.7767 33.4936V33.8653H85.5927V33.2206C85.5927 33.0005 85.5704 32.8638 85.5316 32.8184C85.4928 32.7577 85.4172 32.7346 85.3102 32.7346C85.1959 32.7346 85.1195 32.7577 85.0889 32.8101C85.0431 32.8638 85.0278 32.9918 85.0278 33.1822V35.6608C85.0278 35.866 85.0513 35.9941 85.0889 36.0477C85.1347 36.1014 85.2033 36.1233 85.3102 36.1233C85.4172 36.1233 85.494 36.0932 85.5316 36.0395C85.5774 35.9709 85.5927 35.8342 85.5927 35.6224V34.7201H86.7767V35.3565C86.7767 36.0011 86.6623 36.4628 86.4331 36.7287C86.2188 36.9864 85.8446 37.1157 85.3032 37.1157C84.7618 37.1157 84.3947 36.9864 84.1721 36.7287C83.9508 36.4628 83.8356 36.0081 83.8285 35.3565V33.4932H83.8281Z" fill="#005CFF"/>
<path d="M87.9922 31.8711H89.1609V33.7435H89.7035V31.8711H90.8722V37.1161H89.7035V34.7052H89.1609V37.1161H87.9922V31.8711Z" fill="#005CFF"/>
<path fill-rule="evenodd" clip-rule="evenodd" d="M105.401 37.1161H92.6688C92.3537 37.1161 92.0977 36.8625 92.0977 36.5503V32.4368C92.0977 32.1247 92.3537 31.8711 92.6688 31.8711H105.402C105.717 31.8711 105.973 32.1247 105.973 32.4368V36.5503C105.973 36.8625 105.717 37.1161 105.401 37.1161ZM95.1944 33.7666C94.95 33.5485 94.7398 33.5341 94.646 33.5341C94.5432 33.5341 94.4206 33.5481 94.3281 33.6452C94.274 33.6989 94.2442 33.7666 94.2442 33.8492C94.2442 33.9268 94.2686 33.9846 94.3177 34.0288C94.3809 34.087 94.4656 34.1176 94.6101 34.1696C94.6456 34.1824 94.6853 34.1965 94.729 34.2126L94.9735 34.3043C95.1152 34.3579 95.2865 34.4306 95.4191 34.552C95.6099 34.7321 95.6586 34.9642 95.6586 35.1533C95.6586 35.4878 95.5413 35.7789 95.37 35.9536C95.0867 36.2497 94.6551 36.2832 94.4449 36.2832C94.2104 36.2832 94.0097 36.2489 93.7982 36.1477C93.6268 36.0647 93.4414 35.9152 93.318 35.7942L93.7094 35.2607C93.7933 35.3437 93.9196 35.4548 94.0134 35.5084C94.1406 35.5861 94.2773 35.6245 94.4243 35.6245C94.5221 35.6245 94.6547 35.6051 94.767 35.5134C94.8302 35.4597 94.8843 35.373 94.8843 35.2516C94.8843 35.1405 94.8455 35.0769 94.772 35.0191C94.7051 34.9596 94.5713 34.9088 94.4709 34.8708C94.4404 34.8593 94.4127 34.8485 94.3908 34.8395L94.1216 34.7478C93.9696 34.6941 93.7982 34.6264 93.6669 34.4909C93.4955 34.3113 93.4712 34.0837 93.4712 33.9281C93.4712 33.6369 93.5591 33.3995 93.7549 33.2004C93.9853 32.9679 94.2545 32.9043 94.5626 32.9043C94.7827 32.9043 95.1498 32.9386 95.5314 33.2244L95.1949 33.7658L95.1944 33.7666ZM99.7279 34.5958C99.7279 34.0908 99.5322 33.6691 99.2187 33.3734C98.8904 33.0584 98.4692 32.9035 97.9551 32.9035C97.3034 32.9035 96.8975 33.1604 96.6774 33.3784C96.3838 33.6691 96.1736 34.1403 96.1736 34.6061C96.1736 35.072 96.3693 35.5175 96.6823 35.8087C96.9322 36.0412 97.3381 36.2836 97.9551 36.2836C98.5089 36.2836 98.9107 36.0998 99.2187 35.8087C99.5706 35.4643 99.7279 35.0278 99.7279 34.5962V34.5958ZM96.9479 34.6012C96.9479 34.2374 97.0949 34.004 97.2365 33.8686C97.4129 33.6939 97.6619 33.5915 97.9501 33.5915C98.2384 33.5915 98.5089 33.7129 98.6703 33.8686C98.8215 34.0189 98.954 34.2617 98.954 34.5958C98.954 34.9687 98.8029 35.1971 98.6703 35.3185C98.5142 35.4742 98.2788 35.5952 97.9464 35.5952C97.6924 35.5952 97.4566 35.5274 97.2469 35.3284C97.0457 35.1343 96.9479 34.8919 96.9479 34.6008V34.6012ZM102.224 33.6068H101.167V34.2324H102.145V34.863H101.167V36.2117H100.413V32.9766H102.224V33.6072V33.6068ZM104.044 36.2117V33.6068H104.754V32.9762H102.581V33.6068H103.291V36.2117H104.044Z" fill="#005CFF"/>
</g>
<path d="M20.8228 34.1867H23.4756C24.5452 34.1867 25.4682 33.4372 25.6883 32.3907L25.8584 31.5805L26.4419 28.8038L26.9895 26.1976L28.8825 17.186L29.6341 13.6085L30.2069 10.8829L30.7648 8.22554C31.0601 6.82065 29.988 5.5 28.5522 5.5H16.5701C15.7644 5.5 15.0686 6.06452 14.903 6.85327L14.6147 8.22554L14.056 10.8829L13.4832 13.6085L12.7312 17.186L10.837 26.1976C10.5545 27.5409 11.5795 28.8038 12.9526 28.8038H20.9384C21.9555 28.8038 22.7463 27.918 22.6311 26.9074L22.5502 26.1976L22.2182 23.2858L21.5223 17.186L21.2225 14.5566C21.1647 14.0512 21.5603 13.6085 22.0687 13.6085H24.5815C24.9846 13.6085 25.3323 13.326 25.4153 12.932L25.63 11.91C25.7411 11.3806 25.3373 10.8829 24.7963 10.8829H20.0225C19.0037 10.8829 18.2125 11.7716 18.3306 12.7838L18.4268 13.6089L18.843 17.1864L19.7821 25.2478C19.8412 25.7536 19.4456 26.198 18.936 26.198H14.5454C14.0044 26.198 13.6005 25.7004 13.712 25.1709L15.3899 17.1864L16.1419 13.6089L16.7146 10.8833L17.1309 8.90238C17.2139 8.508 17.5616 8.22595 17.9643 8.22595H27.0585C27.5995 8.22595 28.0033 8.72357 27.8922 9.25257L27.5499 10.8833L26.9771 13.6089L26.2255 17.1864L24.3325 26.198L23.7849 28.8042L23.3435 30.9045C23.2605 31.2989 22.9128 31.5809 22.5101 31.5809H11.7794C10.5706 31.5809 9.52749 32.4279 9.27889 33.6106L9.15748 34.1875L8.44512 37.5767C8.42282 37.6824 8.50376 37.7819 8.61196 37.7819H10.9229C11.0034 37.7819 11.0732 37.7254 11.0897 37.6465L11.6745 34.864C11.7575 34.4696 12.1052 34.1875 12.5078 34.1875H20.7745" fill="#005CFF"/>
</svg>
