<svg width="23" height="34" viewBox="0 0 23 34" fill="none" xmlns="http://www.w3.org/2000/svg">
<path d="M12.7286 30.2134H15.4559C16.5554 30.2134 17.5043 29.424 17.7306 28.3219L17.9055 27.4685L18.5054 24.544L19.0683 21.7991L21.0144 12.3079L21.7871 8.54002L22.3759 5.66942L22.9495 2.87059C23.253 1.39093 22.1509 0 20.6748 0H8.35668C7.5284 0 6.81305 0.594561 6.6428 1.42529L6.34647 2.87059L5.77207 5.66942L5.18323 8.54002L4.41014 12.3079L2.46277 21.7991C2.17238 23.214 3.22609 24.544 4.63769 24.544H12.8475C13.8931 24.544 14.7061 23.6111 14.5877 22.5468L14.5045 21.7991L14.1631 18.7324L13.4478 12.3079L13.1396 9.53863C13.0801 9.00627 13.4868 8.54002 14.0095 8.54002H16.5928C17.0071 8.54002 17.3646 8.24252 17.4499 7.82759L17.6707 6.75111C17.7849 6.19352 17.3697 5.66942 16.8136 5.66942H11.9058C10.8585 5.66942 10.0451 6.60541 10.1665 7.67144L10.2654 8.54045L10.6934 12.3083L11.6588 20.7988C11.7195 21.3316 11.3128 21.7995 10.7889 21.7995H6.27515C5.719 21.7995 5.3038 21.2754 5.41843 20.7179L7.14334 12.3083L7.91643 8.54045L8.50527 5.66986L8.93321 3.58346C9.01854 3.16809 9.376 2.87103 9.78993 2.87103H19.1392C19.6953 2.87103 20.1105 3.39513 19.9963 3.95229L19.6444 5.66986L19.0556 8.54045L18.2829 12.3083L16.3368 21.7995L15.7738 24.5444L15.32 26.7565C15.2347 27.1719 14.8772 27.469 14.4633 27.469H3.43157C2.18894 27.469 1.11654 28.361 0.860968 29.6067L0.736154 30.2143L0.00381867 33.7838C-0.0191066 33.8952 0.0641037 34 0.175334 34H2.55107C2.63386 34 2.7056 33.9404 2.72258 33.8573L3.32374 30.9267C3.40907 30.5114 3.76653 30.2143 4.18046 30.2143H12.6789" fill="#005CFF"/>
</svg>
